<svg width="25" height="24" viewBox="0 0 25 24" fill="none" xmlns="http://www.w3.org/2000/svg" class="" aria-hidden="true"><path d="M12.7236 6.21429C13.6112 6.21429 14.3308 5.49474 14.3308 4.60714C14.3308 3.71954 13.6112 3 12.7236 3C11.836 3 11.1165 3.71954 11.1165 4.60714C11.1165 5.49474 11.836 6.21429 12.7236 6.21429Z" fill="#ffffffcc"></path><path d="M5.72212 8.41945L10.5808 8.89286V12.6429L10.0968 19.5215C10.069 19.856 10.3329 20.1429 10.6686 20.1429C10.9318 20.1429 11.1613 19.9637 11.2251 19.7083L12.4638 13.6823C12.5314 13.4118 12.9159 13.4118 12.9835 13.6823L14.2221 19.7083C14.286 19.9637 14.5155 20.1429 14.7787 20.1429C15.1143 20.1429 15.3783 19.856 15.3504 19.5215L14.8665 12.6429V8.89286L19.7252 8.41945C20.0099 8.38386 20.2236 8.14178 20.2236 7.85478C20.2236 7.54049 19.9689 7.28571 19.6546 7.28571H5.7927C5.47841 7.28571 5.22363 7.54049 5.22363 7.85478C5.22363 8.14178 5.43734 8.38386 5.72212 8.41945Z" fill="#ffffffcc"></path><path d="M12.7236 0C6.09622 0 0.723633 5.37258 0.723633 12C0.723633 18.6274 6.09622 24 12.7236 24C19.351 24 24.7236 18.6274 24.7236 12C24.7236 5.37258 19.351 0 12.7236 0ZM2.22363 12C2.22363 6.20101 6.92464 1.5 12.7236 1.5C18.5226 1.5 23.2236 6.20101 23.2236 12C23.2236 17.799 18.5226 22.5 12.7236 22.5C6.92464 22.5 2.22363 17.799 2.22363 12Z" fill="#ffffffcc"></path></svg>