<svg width="24" height="24" viewBox="0 0 24 24" fill="none" xmlns="https://www.w3.org/2000/svg" classname="IconTikTok"><path fillrule="evenodd" cliprule="evenodd" d="M12 24C18.6274 24 24 18.6274 24 12C24 5.37258 18.6274 0 12 0C5.37258 0 0 5.37258 0 12C0 18.6274 5.37258 24 12 24ZM12.375 15.6562V3H15.3281C15.4687 5.48438 17.2031 7.26562 19.8281 7.45312V10.3594C18.0656 10.3969 16.0938 9.375 15.3281 8.85938V16.1719L15.3192 16.1703C14.9328 18.9003 12.5866 21 9.75 21C6.6434 21 4.125 18.4816 4.125 15.375C4.125 12.2684 6.6434 9.75 9.75 9.75C10.048 9.75 10.3407 9.77317 10.6261 9.81783L10.5938 9.84375V12.7897C10.3281 12.7031 10.0445 12.6562 9.75 12.6562C8.24848 12.6562 7.03125 13.8735 7.03125 15.375C7.03125 16.8765 8.24848 18 9.75 18C11.1523 18 12.2286 17.0197 12.375 15.6562Z" fill="#ffffff"></path></svg>