<svg width="24" height="24" viewBox="0 0 24 24" fill="none" xmlns="https://www.w3.org/2000/svg" class="IconLinkedIn"><path fill-rule="evenodd" clip-rule="evenodd" d="M24 12c0 6.627-5.373 12-12 12S0 18.627 0 12 5.373 0 12 0s12 5.373 12 12zM8.865 6.17c0 .747-.569 1.352-1.459 1.352-.854 0-1.423-.605-1.406-1.352-.017-.783.552-1.37 1.424-1.37.872 0 1.424.587 1.44 1.37zM6.072 17.29v-8.7h2.704v8.7H6.072zm4.8-8.7c.036.766.072 1.691.072 2.777h.001v5.926h2.704v-5.018c0-.25.036-.499.107-.677.178-.498.622-1.014 1.37-1.014.979 0 1.37.765 1.37 1.886v4.823H19.2V12.13c0-2.56-1.335-3.735-3.114-3.735-1.44 0-2.33.835-2.686 1.387h-.054l-.125-1.192h-2.349z" fill="#fff"></path></svg>