<svg width="24" height="24" viewBox="0 0 24 24" fill="none" xmlns="https://www.w3.org/2000/svg" class="IconFooterInstagram"><path fill-rule="evenodd" clip-rule="evenodd" d="M12 24c6.627 0 12-5.373 12-12S18.627 0 12 0 0 5.373 0 12s5.373 12 12 12zm2.91-17.86c-.76-.035-.988-.043-2.91-.043-1.922 0-2.15.008-2.91.042-.701.032-1.083.15-1.336.248a2.23 2.23 0 00-.828.539 2.23 2.23 0 00-.539.828c-.098.253-.216.635-.248 1.337-.034.759-.042.987-.042 2.909 0 1.922.008 2.15.042 2.91.032.701.15 1.083.248 1.336.13.336.287.576.539.828.252.252.492.408.828.539.253.098.635.216 1.337.248.759.034.986.042 2.909.042 1.923 0 2.15-.008 2.91-.042.701-.032 1.083-.15 1.336-.248.336-.13.576-.287.828-.539a2.23 2.23 0 00.539-.828c.098-.253.216-.635.248-1.337.034-.759.042-.987.042-2.909 0-1.922-.008-2.15-.042-2.91-.032-.701-.15-1.083-.248-1.336a2.23 2.23 0 00-.539-.828 2.231 2.231 0 00-.828-.539c-.253-.098-.635-.216-1.337-.248zM9.03 4.842C9.8 4.808 10.045 4.8 12 4.8c1.955 0 2.2.008 2.969.043.766.035 1.29.157 1.747.335.474.184.875.43 1.276.83.4.4.646.802.83 1.276.178.458.3.981.335 1.747.035.768.043 1.014.043 2.969 0 1.955-.008 2.2-.043 2.969-.035.766-.157 1.29-.335 1.747a3.53 3.53 0 01-.83 1.275c-.4.4-.802.647-1.276.831-.458.178-.981.3-1.747.335-.768.035-1.014.043-2.969.043-1.955 0-2.2-.008-2.969-.043-.766-.035-1.29-.157-1.747-.335a3.53 3.53 0 01-1.276-.83c-.4-.4-.646-.802-.83-1.276-.178-.458-.3-.981-.335-1.748C4.808 14.202 4.8 13.956 4.8 12s.008-2.2.043-2.969c.035-.766.157-1.29.335-1.747.184-.474.43-.875.83-1.276.4-.4.802-.646 1.276-.83.458-.178.981-.3 1.747-.335zm2.972 3.463a3.697 3.697 0 100 7.395 3.697 3.697 0 000-7.395zm0 6.097a2.4 2.4 0 110-4.8 2.4 2.4 0 010 4.8zm3.843-5.381a.864.864 0 100-1.728.864.864 0 000 1.728z" fill="#fff"></path></svg>