<svg width="132" height="41" viewBox="0 0 132 41" fill="none" xmlns="http://www.w3.org/2000/svg"><path d="M127.111 40.4973H4.88889C2.2 40.4973 0 38.2754 0 35.5598V5.93481C0 3.21919 2.2 0.997314 4.88889 0.997314H127.111C129.8 0.997314 132 3.21919 132 5.93481V35.5598C132 38.2754 129.8 40.4973 127.111 40.4973Z" fill="black"></path><path d="M9.98492 9.13053C9.70753 9.42208 9.54492 9.87351 9.54492 10.4472V31.2505C9.54492 31.8336 9.70753 32.2851 9.98492 32.5672L10.0519 32.633L21.9032 20.9899V20.8489V20.7078L10.0519 9.0647L9.98492 9.13053Z" fill="url(#paint0_linear_27512_28630)"></path><path d="M25.8538 24.8749L21.9033 20.9908V20.8497V20.7086L25.8538 16.8245L25.9398 16.8715L30.6172 19.486C31.9564 20.229 31.9564 21.4516 30.6172 22.204L25.9398 24.8185L25.8538 24.8749Z" fill="url(#paint1_linear_27512_28630)"></path><path d="M25.9401 24.8177L21.9036 20.8489L9.98535 32.5672C10.4254 33.028 11.1523 33.0845 11.9749 32.6236L25.9401 24.8177Z" fill="url(#paint2_linear_27512_28630)"></path><path d="M25.9399 16.8808L11.9652 9.07481C11.1425 8.61397 10.4156 8.6704 9.97559 9.13124L21.9034 20.8496L25.9399 16.8808Z" fill="url(#paint3_linear_27512_28630)"></path><path opacity="0.2" d="M25.854 24.7327L11.9654 32.4916C11.1906 32.9242 10.4923 32.896 10.0523 32.501L9.98535 32.5668L10.0523 32.6327C10.5019 33.0277 11.1906 33.0559 11.9654 32.6233L25.9401 24.8173L25.854 24.7327Z" fill="black"></path><path opacity="0.12" d="M7.87228 25.7824C7.65359 25.5526 7.52539 25.1967 7.52539 24.7444V24.8556C7.52539 25.3153 7.65359 25.6712 7.87228 25.8936L7.92507 25.8417L7.87228 25.7824Z" fill="black"></path><path opacity="0.12" d="M30.6168 22.0715L25.8438 24.733L25.9298 24.8177L30.6072 22.2032C31.2768 21.827 31.6116 21.3379 31.6116 20.8489C31.5637 21.2909 31.229 21.7329 30.6168 22.0715Z" fill="black"></path><path opacity="0.25" d="M11.9647 9.20769L30.6169 19.6282C31.2195 19.9667 31.5639 20.3994 31.6212 20.8508C31.6212 20.3617 31.2865 19.8633 30.6169 19.4965L11.9647 9.07603C10.6256 8.33305 9.53516 8.95377 9.53516 10.4585V10.5996C9.53516 9.08543 10.6352 8.46472 11.9647 9.20769Z" fill="#F0EEEE"></path><path d="M65.1776 22.6666C62.9298 22.6666 61.0933 24.35 61.0933 26.6636C61.0933 28.9678 62.9298 30.6606 65.1776 30.6606C67.4254 30.6606 69.262 28.9678 69.262 26.6636C69.262 24.35 67.4254 22.6666 65.1776 22.6666ZM65.1776 29.09C63.9437 29.09 62.8819 28.0931 62.8819 26.6636C62.8819 25.2247 63.9437 24.2372 65.1776 24.2372C66.4115 24.2372 67.4733 25.2247 67.4733 26.6636C67.4733 28.0931 66.4019 29.09 65.1776 29.09ZM56.2628 22.6666C54.015 22.6666 52.1785 24.35 52.1785 26.6636C52.1785 28.9678 54.015 30.6606 56.2628 30.6606C58.5106 30.6606 60.3472 28.9678 60.3472 26.6636C60.3472 24.35 58.5106 22.6666 56.2628 22.6666ZM56.2628 29.09C55.0289 29.09 53.9672 28.0931 53.9672 26.6636C53.9672 25.2247 55.0289 24.2372 56.2628 24.2372C57.4967 24.2372 58.5585 25.2247 58.5585 26.6636C58.5585 28.0931 57.4967 29.09 56.2628 29.09ZM45.6646 23.8986V25.5915H49.7967C49.6724 26.5413 49.3472 27.2467 48.8593 27.7263C48.2567 28.3188 47.3193 28.9678 45.6741 28.9678C43.1298 28.9678 41.1402 26.9551 41.1402 24.4535C41.1402 21.9518 43.1298 19.9392 45.6741 19.9392C47.0419 19.9392 48.0463 20.4659 48.7828 21.1524L49.9976 19.958C48.9646 18.9893 47.5967 18.2463 45.6646 18.2463C42.1828 18.2463 39.2559 21.0301 39.2559 24.4629C39.2559 27.8862 42.1828 30.6794 45.6646 30.6794C47.5489 30.6794 48.9646 30.0775 50.0741 28.9396C51.2124 27.8204 51.5663 26.2404 51.5663 24.9707C51.5663 24.5757 51.5376 24.209 51.4706 23.908H45.6646V23.8986ZM89.0046 25.2153C88.6698 24.3218 87.6367 22.6666 85.5228 22.6666C83.428 22.6666 81.6872 24.2842 81.6872 26.6636C81.6872 28.9019 83.4089 30.6606 85.7237 30.6606C87.5889 30.6606 88.6698 29.5415 89.1098 28.8925L87.7228 27.9803C87.2637 28.648 86.6324 29.09 85.7237 29.09C84.815 29.09 84.1646 28.6762 83.7533 27.8768L89.1959 25.6667L89.0046 25.2153ZM83.4567 26.5507C83.4089 25.0084 84.6715 24.2184 85.5802 24.2184C86.288 24.2184 86.8906 24.5663 87.0915 25.0648L83.4567 26.5507ZM79.0376 30.4255H80.8263V18.6696H79.0376V30.4255ZM76.1106 23.56H76.0437C75.6419 23.0898 74.8767 22.6666 73.9011 22.6666C71.8637 22.6666 69.9985 24.4253 69.9985 26.6824C69.9985 28.9207 71.8637 30.67 73.9011 30.67C74.8672 30.67 75.6419 30.2468 76.0437 29.7578H76.1011V30.3315C76.1011 31.8644 75.2689 32.6826 73.9298 32.6826C72.8393 32.6826 72.1602 31.9115 71.8828 31.2625L70.3237 31.9021C70.7732 32.9648 71.9593 34.2626 73.9298 34.2626C76.0246 34.2626 77.7941 33.0494 77.7941 30.0963V22.9111H76.1011V23.56H76.1106ZM74.0541 29.09C72.8202 29.09 71.7872 28.0743 71.7872 26.6824C71.7872 25.2717 72.8202 24.2466 74.0541 24.2466C75.2689 24.2466 76.2254 25.2811 76.2254 26.6824C76.235 28.0743 75.2785 29.09 74.0541 29.09ZM97.3837 18.6696H93.108V30.4255H94.8967V25.9676H97.3933C99.3733 25.9676 101.315 24.5569 101.315 22.3186C101.315 20.0803 99.3541 18.6696 97.3837 18.6696ZM97.4219 24.3312H94.8872V20.2966H97.4219C98.7611 20.2966 99.5167 21.3875 99.5167 22.3092C99.5167 23.2309 98.7611 24.3312 97.4219 24.3312ZM108.46 22.6478C107.169 22.6478 105.83 23.2121 105.275 24.4441L106.863 25.093C107.198 24.4441 107.829 24.2278 108.489 24.2278C109.407 24.2278 110.354 24.7732 110.364 25.7419V25.8642C110.038 25.6855 109.35 25.4128 108.498 25.4128C106.786 25.4128 105.055 26.3344 105.055 28.0555C105.055 29.6261 106.452 30.6418 108.02 30.6418C109.216 30.6418 109.885 30.1151 110.297 29.4944H110.354V30.4067H112.076V25.9018C112.085 23.814 110.498 22.6478 108.46 22.6478ZM108.24 29.09C107.657 29.09 106.844 28.7985 106.844 28.0931C106.844 27.1903 107.858 26.8423 108.738 26.8423C109.522 26.8423 109.895 27.0116 110.364 27.2373C110.23 28.3188 109.273 29.09 108.24 29.09ZM118.36 22.9017L116.313 27.9991H116.256L114.132 22.9017H112.21L115.395 30.0305L113.578 33.9899H115.443L120.35 22.9017H118.36ZM102.291 30.4255H104.079V18.6696H102.291V30.4255Z" fill="#F0EEEE"></path><path d="M39.543 14.437V8.79419H41.303C42.183 8.79419 42.8908 9.05752 43.4169 9.57478C43.943 10.1015 44.2108 10.7786 44.2108 11.6156C44.2108 12.4526 43.943 13.1298 43.4169 13.6565C42.8812 14.1737 42.1734 14.437 41.2934 14.437H39.543ZM40.2795 13.7411H41.2934C41.9534 13.7411 42.4795 13.553 42.8717 13.1768C43.2638 12.8006 43.4551 12.2834 43.4551 11.6062C43.4551 10.9385 43.2638 10.4212 42.8717 10.045C42.4795 9.66883 41.963 9.48074 41.2934 9.48074H40.2795V13.7411Z" fill="#F0EEEE" stroke="#F0EEEE" stroke-width="0.190217" stroke-miterlimit="10"></path><path d="M45.2441 14.437V8.79419H45.9807V14.437H45.2441Z" fill="#F0EEEE" stroke="#F0EEEE" stroke-width="0.190217" stroke-miterlimit="10"></path><path d="M48.9071 14.5591C48.4863 14.5591 48.0845 14.4275 47.6828 14.1547C47.281 13.882 47.0228 13.5152 46.8984 13.0262L47.568 12.7628C47.6445 13.0732 47.8071 13.3365 48.0558 13.5434C48.3045 13.7597 48.5819 13.8632 48.8976 13.8632C49.2132 13.8632 49.4906 13.7785 49.7202 13.6187C49.9497 13.4494 50.0645 13.2331 50.0645 12.9415C50.0645 12.6312 49.9497 12.3866 49.7202 12.2174C49.4906 12.0481 49.1367 11.8882 48.6393 11.7377C48.1324 11.5778 47.7497 11.3803 47.4819 11.1264C47.2237 10.8725 47.0897 10.5621 47.0897 10.1671C47.0897 9.76271 47.2524 9.41473 47.5776 9.11378C47.9028 8.81283 48.3332 8.66235 48.8497 8.66235C49.3376 8.66235 49.7297 8.78461 50.0358 9.01973C50.3419 9.25485 50.5428 9.51819 50.6289 9.80033L49.9593 10.0731C49.9115 9.89438 49.7967 9.72509 49.6054 9.57461C49.4141 9.42414 49.175 9.3489 48.8689 9.3489C48.5819 9.3489 48.3428 9.42414 48.1419 9.58402C47.941 9.7439 47.8454 9.932 47.8454 10.1671C47.8454 10.374 47.941 10.5527 48.1228 10.7032C48.3045 10.8443 48.5819 10.9759 48.9358 11.0888C49.2228 11.1828 49.4524 11.2675 49.6437 11.3521C49.835 11.4368 50.0263 11.5496 50.2176 11.6907C50.4089 11.8318 50.5619 12.001 50.6576 12.2079C50.7532 12.4149 50.8106 12.6594 50.8106 12.9321C50.8106 13.2049 50.7532 13.4494 50.6384 13.6657C50.5237 13.882 50.3706 14.0513 50.1793 14.1735C49.988 14.2958 49.7871 14.3993 49.5671 14.4651C49.3663 14.5309 49.1367 14.5591 48.9071 14.5591Z" fill="#F0EEEE" stroke="#F0EEEE" stroke-width="0.190217" stroke-miterlimit="10"></path><path d="M52.6193 14.437H51.8828V8.79419H53.8341C54.3219 8.79419 54.7428 8.95407 55.0967 9.27383C55.4506 9.59359 55.6324 9.9886 55.6324 10.4776C55.6324 10.9573 55.4506 11.3617 55.0967 11.6815C54.7428 12.0012 54.3219 12.1611 53.8341 12.1611H52.6193V14.437ZM52.6193 11.4557H53.8533C54.1593 11.4557 54.408 11.3523 54.5993 11.1454C54.7906 10.9385 54.8767 10.7128 54.8767 10.4682C54.8767 10.2237 54.7811 9.998 54.5993 9.79109C54.408 9.58419 54.1593 9.48074 53.8533 9.48074H52.6193V11.4557Z" fill="#F0EEEE" stroke="#F0EEEE" stroke-width="0.190217" stroke-miterlimit="10"></path><path d="M61.2555 13.7037C60.6912 14.2774 59.9929 14.5595 59.1512 14.5595C58.3094 14.5595 57.6112 14.2774 57.0468 13.7037C56.4825 13.13 56.2051 12.434 56.2051 11.6158C56.2051 10.7976 56.4825 10.0922 57.0468 9.52795C57.6112 8.95426 58.3094 8.67212 59.1512 8.67212C59.9833 8.67212 60.6816 8.95426 61.2555 9.52795C61.8199 10.1016 62.1068 10.7976 62.1068 11.6158C62.1068 12.4434 61.8199 13.1394 61.2555 13.7037ZM57.592 13.2334C58.0129 13.6566 58.539 13.8635 59.1512 13.8635C59.7633 13.8635 60.2894 13.6566 60.7103 13.2334C61.1312 12.8102 61.3512 12.2741 61.3512 11.6158C61.3512 10.9575 61.1407 10.4214 60.7103 9.99819C60.2894 9.57498 59.7633 9.36807 59.1512 9.36807C58.539 9.36807 58.0129 9.57498 57.592 9.99819C57.1712 10.4214 56.9512 10.9575 56.9512 11.6158C56.9512 12.2741 57.1712 12.8102 57.592 13.2334Z" fill="#F0EEEE" stroke="#F0EEEE" stroke-width="0.190217" stroke-miterlimit="10"></path><path d="M63.1406 14.437V8.79419H64.0398L66.8328 13.1862H66.8615L66.8328 12.0953V8.79419H67.5693V14.437H66.8041L63.8867 9.83812H63.858L63.8867 10.9291V14.437H63.1406Z" fill="#F0EEEE" stroke="#F0EEEE" stroke-width="0.190217" stroke-miterlimit="10"></path><path d="M68.8789 14.4371V8.79428H69.6154V14.4371H68.8789ZM69.5676 8.35226H68.9267L69.3476 7.34595H70.1511L69.5676 8.35226Z" fill="#F0EEEE" stroke="#F0EEEE" stroke-width="0.190217" stroke-miterlimit="10"></path><path d="M72.3522 14.437L70.334 8.79419H71.147L72.7157 13.3743H72.7444L74.3896 8.79419H75.2027L73.1175 14.437H72.3522Z" fill="#F0EEEE" stroke="#F0EEEE" stroke-width="0.190217" stroke-miterlimit="10"></path><path d="M79.3918 9.49014H76.7805V11.277H79.1335V11.9542H76.7805V13.7411H79.3918V14.437H76.0439V8.79419H79.3918V9.49014Z" fill="#F0EEEE" stroke="#F0EEEE" stroke-width="0.190217" stroke-miterlimit="10"></path><path d="M80.54 14.437V8.79419H81.2766V13.7411H83.7635V14.437H80.54Z" fill="#F0EEEE" stroke="#F0EEEE" stroke-width="0.190217" stroke-miterlimit="10"></path><path d="M86.6133 14.437V8.79419H87.5124L90.3055 13.1862H90.3342L90.3055 12.0953V8.79419H91.042V14.437H90.2768L87.3594 9.83812H87.3307L87.3594 10.9291V14.437H86.6133Z" fill="#F0EEEE" stroke="#F0EEEE" stroke-width="0.190217" stroke-miterlimit="10"></path><path d="M97.0495 13.7037C96.4851 14.2774 95.7869 14.5595 94.9451 14.5595C94.1034 14.5595 93.4051 14.2774 92.8408 13.7037C92.2764 13.13 91.999 12.434 91.999 11.6158C91.999 10.7976 92.2764 10.0922 92.8408 9.52795C93.4051 8.95426 94.1034 8.67212 94.9451 8.67212C95.7773 8.67212 96.4755 8.95426 97.0495 9.52795C97.6138 10.1016 97.9008 10.7976 97.9008 11.6158C97.8912 12.4434 97.6138 13.1394 97.0495 13.7037ZM93.386 13.2334C93.8068 13.6566 94.3329 13.8635 94.9451 13.8635C95.5573 13.8635 96.0834 13.6566 96.5042 13.2334C96.9251 12.8102 97.1451 12.2741 97.1451 11.6158C97.1451 10.9575 96.9347 10.4214 96.5042 9.99819C96.0834 9.57498 95.5573 9.36807 94.9451 9.36807C94.3329 9.36807 93.8068 9.57498 93.386 9.99819C92.9651 10.4214 92.7451 10.9575 92.7451 11.6158C92.7451 12.2741 92.9651 12.8102 93.386 13.2334Z" fill="#F0EEEE" stroke="#F0EEEE" stroke-width="0.190217" stroke-miterlimit="10"></path><defs><linearGradient id="paint0_linear_27512_28630" x1="20.8507" y1="10.2306" x2="5.06953" y2="26.281" gradientUnits="userSpaceOnUse"><stop stop-color="#00A0FF"></stop><stop offset="0.00657445" stop-color="#00A1FF"></stop><stop offset="0.2601" stop-color="#00BEFF"></stop><stop offset="0.5122" stop-color="#00D2FF"></stop><stop offset="0.7604" stop-color="#00DFFF"></stop><stop offset="1" stop-color="#00E3FF"></stop></linearGradient><linearGradient id="paint1_linear_27512_28630" x1="32.3623" y1="20.851" x2="9.21745" y2="20.851" gradientUnits="userSpaceOnUse"><stop stop-color="#FFE000"></stop><stop offset="0.4087" stop-color="#FFBD00"></stop><stop offset="0.7754" stop-color="#FFA500"></stop><stop offset="1" stop-color="#FF9C00"></stop></linearGradient><linearGradient id="paint2_linear_27512_28630" x1="23.7468" y1="23.0083" x2="2.34625" y2="44.774" gradientUnits="userSpaceOnUse"><stop stop-color="#FF3A44"></stop><stop offset="1" stop-color="#C31162"></stop></linearGradient><linearGradient id="paint3_linear_27512_28630" x1="6.97909" y1="2.20576" x2="16.5354" y2="11.925" gradientUnits="userSpaceOnUse"><stop stop-color="#32A071"></stop><stop offset="0.0685" stop-color="#2DA771"></stop><stop offset="0.4762" stop-color="#15CF74"></stop><stop offset="0.8009" stop-color="#06E775"></stop><stop offset="1" stop-color="#00F076"></stop></linearGradient></defs></svg>