<svg width="24" height="24" viewBox="0 0 24 24" fill="none" xmlns="https://www.w3.org/2000/svg" class="IconFooterYoutube"><path fill-rule="evenodd" clip-rule="evenodd" d="M12 24c6.627 0 12-5.373 12-12S18.627 0 12 0 0 5.373 0 12s5.373 12 12 12zm7.28-15.709a1.939 1.939 0 00-1.364-1.365C16.719 6.6 11.903 6.6 11.903 6.6s-4.817.01-6.013.336a1.938 1.938 0 00-1.365 1.365c-.362 2.127-.503 5.367.01 7.408a1.939 1.939 0 001.364 1.365c1.197.326 6.014.326 6.014.326s4.816 0 6.013-.326a1.939 1.939 0 001.365-1.365c.381-2.13.5-5.368-.01-7.418zm-8.91 6.023L14.365 12 10.37 9.686v4.628z" fill="#fff"></path></svg>