<svg width="24" height="24" viewBox="0 0 24 24" fill="none" xmlns="https://www.w3.org/2000/svg" classname="#ffffff"><path fillrule="evenodd" cliprule="evenodd" d="M12 24c6.627 0 12-5.373 12-12S18.627 0 12 0 0 5.373 0 12s5.373 12 12 12zm5.503-16.15a5.898 5.898 0 001.697-.465 6.018 6.018 0 01-1.475 1.53 7.8 7.8 0 01.009.382c0 3.904-2.972 8.406-8.406 8.406A8.364 8.364 0 014.8 16.375a5.929 5.929 0 004.374-1.223 2.958 2.958 0 01-2.76-2.052 2.955 2.955 0 001.334-.05 2.958 2.958 0 01-2.37-2.898v-.037c.4.221.855.354 1.34.37a2.951 2.951 0 01-1.315-2.459c0-.541.146-1.049.4-1.485a8.386 8.386 0 006.09 3.087 2.954 2.954 0 015.034-2.695 5.917 5.917 0 001.875-.717 2.961 2.961 0 01-1.299 1.634z" fill="#ffffff"></path></svg>