<svg width="20" height="20" viewBox="0 0 23 22" fill="none" xmlns="https://www.w3.org/2000/svg" class="IconCart"><path d="M7.09977 17.6C5.88981 17.6 4.91085 18.59 4.91085 19.8C4.91085 21.01 5.88981 22 7.09977 22C8.30973 22 9.2997 21.01 9.2997 19.8C9.2997 18.59 8.30973 17.6 7.09977 17.6ZM0.5 0V2.2H2.69992L6.65979 10.549L5.17484 13.244C4.99885 13.552 4.89985 13.915 4.89985 14.3C4.89985 15.51 5.88981 16.5 7.09977 16.5H20.2993V14.3H7.56176C7.40776 14.3 7.28677 14.179 7.28677 14.025L7.31977 13.893L8.30973 12.1H16.5044C17.3294 12.1 18.0554 11.649 18.4294 10.967L22.3672 3.828C22.458 3.66013 22.5037 3.47158 22.4998 3.28078C22.4959 3.08998 22.4426 2.90346 22.345 2.73943C22.2475 2.5754 22.1091 2.43947 21.9433 2.34492C21.7776 2.25037 21.5901 2.20044 21.3993 2.2H5.13084L4.09688 0H0.5ZM18.0994 17.6C16.8894 17.6 15.9105 18.59 15.9105 19.8C15.9105 21.01 16.8894 22 18.0994 22C19.3094 22 20.2993 21.01 20.2993 19.8C20.2993 18.59 19.3094 17.6 18.0994 17.6Z" fill="#ff6500"></path></svg>