<svg width="61" height="13" viewBox="0 0 61 13" fill="none" xmlns="http://www.w3.org/2000/svg" class="IconMagalu"><title>Magalu</title><g clip-path="url(#clip0_4843_3375)"><path d="M29.8472 1.07051C29.8888 0.960378 29.9136 0.903109 29.9316 0.843638C30.0982 0.297382 30.2197 0.205973 30.8084 0.201567C31.137 0.199365 31.4668 0.191655 31.7943 0.211479C32.2592 0.239012 32.4269 0.42073 32.4269 0.87888C32.4291 2.67073 32.4348 4.46258 32.4246 6.25443C32.4201 7.20047 32.4663 8.1465 32.383 9.09144C32.1995 11.1531 30.7724 12.565 28.6699 12.7599C27.2337 12.8932 25.8426 12.7313 24.5145 12.1542C24.412 12.1091 24.3096 12.0617 24.2151 12.0033C23.9348 11.8315 23.8617 11.6234 23.981 11.3216C24.1262 10.9538 24.2792 10.5881 24.4334 10.2236C24.6203 9.78307 24.8746 9.66853 25.326 9.84914C26.1656 10.185 27.0356 10.3271 27.9406 10.2754C28.1859 10.2621 28.4257 10.2236 28.6598 10.1553C29.4645 9.92183 29.9327 9.18835 29.8112 8.33703C29.1235 9.10906 28.2141 9.04959 27.308 8.98571C26.9906 8.96368 26.6766 8.8976 26.3693 8.8117C24.7306 8.35025 23.6816 7.1421 23.47 5.4802C23.3687 4.68835 23.3766 3.90311 23.6062 3.13218C24.0969 1.48791 25.5432 0.364563 27.3294 0.234607C27.5444 0.219189 27.7605 0.204871 27.9766 0.208175C28.7093 0.223594 29.3711 0.402008 29.8472 1.07051ZM25.9867 4.63108C25.9776 5.7302 26.752 6.49342 27.8933 6.51104C28.9727 6.52756 29.8314 5.70707 29.8438 4.6476C29.8573 3.57271 29.0233 2.73461 27.9259 2.72139C26.788 2.70818 25.9968 3.48681 25.9867 4.63108Z" fill="#0186FF"></path><path d="M3.03615 4.40892C2.99 5.16774 2.94611 5.8891 2.90221 6.61157C2.86507 7.23492 2.83018 7.85937 2.78966 8.48271C2.76827 8.81421 2.6017 8.99483 2.26067 9.00804C1.76319 9.02787 1.2657 9.02787 0.768224 9.01575C0.338275 9.00584 0.200962 8.84505 0.233602 8.42214C0.313514 7.3869 0.395677 6.35166 0.482342 5.31751C0.60615 3.82522 0.732208 2.33293 0.861643 0.840643C0.901036 0.383594 1.07662 0.2217 1.54146 0.209586C1.88924 0.200775 2.23703 0.213991 2.58369 0.20518C2.99113 0.195268 3.27026 0.360467 3.47848 0.709586C4.25396 2.01025 5.04408 3.3032 5.83082 4.59725C5.88709 4.68976 5.91973 4.80099 6.04129 4.86818C6.42284 4.25474 6.80439 3.64461 7.18482 3.03337C7.66879 2.25694 8.16064 1.48492 8.63224 0.701876C8.84046 0.356061 9.12634 0.190863 9.5304 0.198572C9.85005 0.20518 10.1697 0.190863 10.4882 0.204079C10.9508 0.222802 11.1343 0.390202 11.1759 0.83844C11.2434 1.5521 11.2963 2.26685 11.356 2.98051C11.5001 4.69307 11.6374 6.40562 11.7904 8.11597C11.8625 8.91884 11.7814 9.02236 10.9688 9.02236C10.612 9.02236 10.2552 9.02677 9.89845 9.02016C9.39872 9.01135 9.26365 8.89241 9.23439 8.40232C9.18149 7.50364 9.14435 6.60386 9.09933 5.70408C9.07457 5.2206 9.04868 4.73822 9.02167 4.23271C8.8821 4.28007 8.85396 4.38359 8.80444 4.46289C8.30696 5.25254 7.80611 6.03998 7.32101 6.83734C7.12291 7.16223 6.85617 7.32412 6.46899 7.31421C6.1122 7.3054 5.75541 7.3065 5.39862 7.31421C5.00131 7.32302 4.72556 7.15893 4.52972 6.81752C4.11102 6.08954 3.67544 5.37038 3.2455 4.64901C3.19485 4.57412 3.16783 4.48051 3.03615 4.40892Z" fill="#0186FF"></path><path d="M40.0917 1.06938C40.1322 1.03964 40.1446 1.03414 40.1446 1.02973C40.1491 0.354622 40.4676 0.207045 41.1654 0.201538C41.4941 0.198234 41.8227 0.192727 42.1503 0.212551C42.5284 0.235679 42.686 0.399776 42.722 0.764313C42.7299 0.845811 42.7288 0.929512 42.7288 1.01211C42.7288 3.42731 42.7288 5.84361 42.7288 8.25881C42.7288 8.88986 42.5982 9.01872 41.9567 9.01982C41.628 9.02092 41.2994 9.02533 40.9707 9.01652C40.5734 9.00661 40.4429 8.90198 40.3224 8.53304C40.2718 8.37775 40.2132 8.22467 40.1592 8.07048C40.1198 8.0859 40.0973 8.087 40.0861 8.09912C39.144 9.13987 37.9194 9.15198 36.6814 8.91409C35.414 8.6707 34.5811 7.84581 34.1186 6.69163C33.5063 5.16299 33.5423 3.62995 34.2998 2.15638C34.9154 0.957044 35.9363 0.29515 37.3218 0.215855C37.7911 0.188322 38.2605 0.208146 38.7242 0.291846C39.2689 0.393168 39.7124 0.674005 40.0917 1.06938ZM38.1828 2.72136C37.0742 2.72026 36.2874 3.5022 36.2807 4.61343C36.2739 5.70925 37.0933 6.51321 38.2143 6.51101C39.2982 6.50881 40.1457 5.68392 40.1513 4.62665C40.1581 3.53854 39.314 2.72246 38.1828 2.72136Z" fill="#0186FF"></path><path d="M19.5149 1.0835C19.713 0.280641 19.8188 0.200245 20.6348 0.200245C20.9545 0.200245 21.2741 0.194738 21.5915 0.218967C21.9258 0.245399 22.0935 0.428218 22.1138 0.758615C22.1262 0.951346 22.1183 1.14408 22.1183 1.33791C22.1183 3.6628 22.1183 5.98879 22.1183 8.31368C22.1183 8.87315 21.9731 9.01522 21.4036 9.01853C21.0839 9.02073 20.7654 9.02073 20.4458 9.01853C19.9561 9.01412 19.8447 8.93262 19.6962 8.47888C19.551 8.03725 19.5453 8.03174 19.2122 8.34892C18.7867 8.75421 18.2656 8.92932 17.6927 8.9943C15.3978 9.25531 13.6847 8.04386 13.2278 5.82359C12.9802 4.62095 13.0702 3.44474 13.6015 2.32249C14.2734 0.899584 15.543 0.153989 17.1446 0.211258C17.5768 0.226677 18.0056 0.2465 18.4243 0.374254C18.8486 0.50421 19.1762 0.775135 19.5149 1.0835ZM15.6814 4.62315C15.6803 5.71787 16.4727 6.50201 17.5892 6.51082C18.6877 6.51963 19.5352 5.69584 19.5363 4.61544C19.5375 3.52183 18.7012 2.71787 17.5644 2.72117C16.4513 2.72447 15.6825 3.50091 15.6814 4.62315Z" fill="#0186FF"></path><path d="M58.1934 8.0428C57.1995 9.09456 55.9322 9.11769 54.6682 8.97672C53.2681 8.82033 52.1966 7.71571 51.8781 6.26527C51.7903 5.86879 51.7543 5.46791 51.7554 5.06262C51.7576 3.69368 51.7554 2.32474 51.7565 0.955795C51.7565 0.390817 51.9355 0.2102 52.5084 0.201389C52.8742 0.195883 53.2411 0.192579 53.6069 0.203592C54.1201 0.219011 54.3182 0.41835 54.3205 0.919451C54.325 2.03068 54.3182 3.14302 54.325 4.25425C54.3261 4.51086 54.334 4.77077 54.3812 5.02297C54.5715 6.05491 55.3773 6.61989 56.4691 6.50205C57.5518 6.38531 58.1697 5.7113 58.1866 4.58024C58.2046 3.38641 58.1923 2.19148 58.1934 0.997645C58.1945 0.398526 58.3858 0.207997 59.0004 0.202491C59.3662 0.199187 59.7331 0.192579 60.0989 0.206896C60.5637 0.224517 60.7697 0.426059 60.7697 0.879804C60.7742 3.3787 60.7742 5.8776 60.7697 8.3765C60.7686 8.82033 60.5694 9.01196 60.1146 9.02958C59.8051 9.0417 59.4945 9.02628 59.185 9.03509C58.8192 9.045 58.5817 8.8754 58.4342 8.56042C58.36 8.39963 58.2868 8.24214 58.1934 8.0428Z" fill="#0186FF"></path><path d="M44.0254 3.5528C44.0254 2.67945 44.0231 1.8061 44.0265 0.933857C44.0288 0.385399 44.2077 0.209188 44.7705 0.20258C45.1464 0.197073 45.5223 0.194871 45.8971 0.203681C46.4047 0.215796 46.5882 0.401919 46.5893 0.900818C46.5916 2.27967 46.5905 3.65853 46.5905 5.03628C46.5905 5.14641 46.5871 5.25765 46.5938 5.36668C46.6434 6.12549 47.0114 6.48782 47.7891 6.50765C48.4363 6.52417 49.0857 6.51095 49.7329 6.51425C50.2754 6.51646 50.4622 6.69817 50.4645 7.22681C50.4667 7.6409 50.4712 8.0539 50.4622 8.468C50.4544 8.79729 50.2912 9.00104 49.9805 9.00544C48.8449 9.02417 47.7025 9.10456 46.5747 8.97351C44.9798 8.78738 44.0907 7.78187 44.0423 6.20148C44.0153 5.32042 44.0378 4.43716 44.0378 3.555C44.0333 3.5528 44.0299 3.5528 44.0254 3.5528Z" fill="#0186FF"></path></g><defs><clipPath id="clip0_4843_3375"><rect width="61" height="13" fill="white"></rect></clipPath></defs></svg>