<svg width="80" height="14" xmlns="https://www.w3.org/2000/svg" fill="none" viewBox="0 0 170 28" class="w-auto"><path fill="#FF6500" d="M22.768 1.349c-.806 2.508-1.508 4.619-2.156 6.745-.183.6-.604.854-1.085 1.133-.893.521-1.604 1.075-1.186 2.372.419 1.29 1.264 1.835 2.45 1.614 1.018-.19 1.682.146 2.39.76 1.445 1.257 2.942 2.463 4.764 3.977-2.754 0-5.06-.003-7.366 0-.643 0-.893-.566-1.306-.9-.773-.623-1.502-.814-2.413-.154-.89.645-1.345 1.366-.816 2.393.61 1.184.412 2.25-.107 3.408-.72 1.605-1.3 3.27-2.094 5.3-.846-2.61-1.557-4.816-2.277-7.018-.203-.618.266-1.023.436-1.523.293-.851.368-1.606-.468-2.272-.83-.66-1.796-1.072-2.528-.26-1.251 1.393-2.754 1.099-4.256 1.03-1.425-.064-2.853-.204-4.75-.343 2.25-1.62 4.185-3.02 6.13-4.407.322-.23.669.003 1.006.027.953.07 1.864.143 2.324-1.05.466-1.21.341-2.272-.806-2.82C7.429 8.775 7.16 7.778 6.89 6.654c-.406-1.72-.875-3.422-1.41-5.488 2.136 1.56 3.97 2.908 5.81 4.244.5.363.553.896.667 1.438.179.848.424 1.639 1.538 1.696 1.141.058 2.261-.127 2.429-1.396.22-1.693 1.38-2.372 2.613-3.114 1.312-.793 2.59-1.641 4.23-2.686zm-8.716 10.553c-.872.027-1.38.505-1.404 1.275-.027.857.51 1.384 1.4 1.354.813-.028 1.282-.521 1.276-1.33-.009-.82-.525-1.227-1.272-1.3z"></path><path fill="#0E1116" d="M58.423 2.796c.764 0 1.232-.69 1.232-1.398 0-.747-.503-1.398-1.18-1.398-.677 0-1.197.69-1.197 1.398 0 .709.468 1.398 1.145 1.398zM57.746 5.995v15.55h1.44V5.996h-1.44zM32.724 11.012c0-1.685-.035-3.332-.121-5.017h1.37l.122 3.236h.052c1.058-2.106 2.984-3.62 5.934-3.62 4.13 0 6.784 3.62 6.784 7.834 0 5.439-3.28 8.484-7.131 8.484-2.204 0-4.338-.996-5.518-3.18h-.052V28h-1.44V11.012zm1.44 4.271c0 .422.052.843.139 1.226.59 2.202 2.672 4.118 5.31 4.118 3.574 0 5.812-2.777 5.812-7.125 0-3.524-2.117-6.607-5.639-6.607-2.325 0-4.58 1.455-5.362 4.27-.121.422-.26.939-.26 1.36v2.758zM49.54 11.012c0-1.685-.034-3.332-.12-5.017h1.318l.052 3.37h.087c.711-2.164 2.22-3.753 4.32-3.753.243 0 .469.038.677.095v1.456c-.26-.058-.503-.058-.815-.058-1.961 0-3.47 1.82-3.94 4.501-.086.46-.138.996-.138 1.513v8.427h-1.44V11.012zM63.159 9.748c0-1.264-.035-2.49-.122-3.754h1.354L64.512 9h.052c1.024-1.935 2.499-3.41 5.067-3.41 2.238 0 3.817 1.724 4.424 3.697h.052c.417-.938.937-1.647 1.475-2.164 1.024-.977 2.082-1.513 3.835-1.513 1.319 0 5.049.785 5.049 7.258v8.676h-1.44v-8.657c0-3.926-1.527-5.917-4.112-5.917-1.961 0-3.488 1.55-4.113 3.14l-.045.181c-.1.385-.215.838-.215 1.332v9.902h-1.44v-9.442c0-3.045-1.492-5.113-3.87-5.113-2.134 0-3.747 1.876-4.372 3.6-.139.421-.26.977-.26 1.513v9.461h-1.44V9.748zM94.341 20.57c-3.348 0-5.951-2.26-5.951-6.8h11.695c.052-.268.052-.498.052-.976 0-2.069-.903-7.182-6.125-7.182-3.991 0-7.045 3.255-7.045 8.541 0 4.5 2.846 7.776 7.218 7.776 2.967 0 4.546-.804 5.05-1.073l-.382-1.264c-.902.46-2.082.977-4.511.977zm-.485-13.656c4.216 0 4.84 3.964 4.806 5.592H88.494c.295-2.356 1.787-5.592 5.362-5.592zM145.043 24.225c1.366-.109 2.372-.434 2.983-1.048.7-.723 1.006-1.951 1.006-5.167V6.576h4.851v12.68c0 3.234-.719 5.348-2.12 6.739-1.473 1.39-3.737 2.005-6.217 2.005l-.503-3.775zM154.027 2.367c0 1.282-.953 2.366-2.623 2.366-1.6 0-2.552-1.084-2.552-2.366 0-1.319.97-2.367 2.587-2.367 1.617-.018 2.57 1.048 2.588 2.367zM127.793 2.367c0 1.301-.971 2.367-2.624 2.367-1.581 0-2.551-1.066-2.551-2.367 0-1.318.97-2.366 2.587-2.366 1.617 0 2.57 1.03 2.588 2.366zM122.78 21.534V6.576h4.851v14.958h-4.851zM104.921 11.453c0-1.933-.054-3.56-.126-4.86h4.204l.216 2.186h.108c.539-.885 2.138-2.547 4.922-2.547 3.109 0 5.768 1.951 5.768 6.72v8.599h-4.851v-7.949c0-2.15-.809-3.504-2.641-3.504-1.474 0-2.3 1.047-2.624 1.896-.125.29-.143.705-.143 1.066v8.472h-4.851v-10.08h.018zM130.273 6.593c.072 1.3.126 2.927.126 4.86h-.018v10.08h4.851V13.06c0-.361.018-.776.144-1.066.323-.848 1.15-1.896 2.623-1.896 1.832 0 2.641 1.355 2.641 3.504v7.949h4.851v-8.6c0-4.768-2.659-6.719-5.767-6.719-2.785 0-4.384 1.662-4.923 2.547h-.108l-.216-2.186h-4.204zM165.347 20.052l.287 1.48H170c-.161-.776-.251-2.185-.251-3.684v-5.094c0-3.686-1.833-6.54-6.935-6.54-2.929 0-5.049.777-6.163 1.41l.898 3.07c1.025-.614 2.821-1.192 4.456-1.192 2.587-.018 2.929 1.21 2.929 1.879v.144c-5.893-.018-9.361 1.915-9.361 5.799 0 2.312 1.815 4.588 5.103 4.588 1.904 0 3.539-.65 4.563-1.86h.108zm-4.977-3.234c0-1.68 1.905-2.312 4.708-2.294h-.018v1.319c0 .27-.018.578-.09.83-.306.976-1.348 1.861-2.641 1.861-1.186 0-1.959-.596-1.959-1.716z"></path><defs><clipPath><path fill="#fff" d="M0 0H27.945V26.833H0z" transform="translate(0 1.167)"></path></clipPath></defs></svg>