<svg width="10" height="10" viewBox="0 0 24 24" fill="none" xmlns="https://www.w3.org/2000/svg" class="IconRatingStarEmpty" aria-hidden="true"><path fill-rule="evenodd" clip-rule="evenodd" d="M18.334 24C17.9965 24 17.6965 23.8875 17.434 23.7375L12.109 20.25C12.034 20.2125 11.9965 20.2125 11.9215 20.25L6.59653 23.7375C6.29653 23.8875 5.99653 24 5.65903 24C5.13403 24 4.64653 23.775 4.34653 23.3625C4.00903 22.95 3.89653 22.425 4.04653 21.9375L5.54653 15.375C5.54653 15.3 5.54653 15.225 5.47153 15.1875L0.559031 10.7625C0.0715306 10.3125 -0.115969 9.6 0.0715307 8.9625C0.296531 8.325 0.859031 7.875 1.53403 7.8375L7.87153 7.35C7.94653 7.35 7.98403 7.3125 8.02153 7.2375L10.384 1.0875C10.684 0.4125 11.284 0 11.9965 0C12.709 0 13.309 0.4125 13.5715 1.0875L15.934 7.2375C15.9715 7.3125 16.009 7.35 16.084 7.35L22.4215 7.8375C23.0965 7.875 23.659 8.325 23.884 8.9625C24.109 9.6 23.9215 10.3125 23.3965 10.7625L18.484 15.1875C18.4465 15.225 18.409 15.3 18.409 15.375L19.9465 21.9375C20.059 22.425 19.9465 22.95 19.6465 23.3625C19.3465 23.775 18.8215 24 18.334 24ZM11.9965 18.7125C12.334 18.7125 12.634 18.825 12.934 18.975L18.259 22.4625C18.334 22.5375 18.4465 22.5 18.5215 22.425C18.559 22.3875 18.559 22.35 18.559 22.275L17.0215 15.7125C16.8715 15.1125 17.0965 14.475 17.5465 14.0625L22.4965 9.675C22.5715 9.6 22.5715 9.525 22.534 9.4875C22.4965 9.4125 22.459 9.375 22.384 9.375L16.0465 8.8875C15.409 8.85 14.8465 8.4 14.6215 7.8L12.184 1.6125C12.109 1.4625 11.9215 1.4625 11.8465 1.6125L9.48403 7.7625C9.25903 8.3625 8.69653 8.775 8.05903 8.85L1.68403 9.3375C1.60903 9.3375 1.53403 9.375 1.53403 9.45C1.53403 9.4875 1.49653 9.6 1.57153 9.6375L6.52153 14.025C6.97153 14.4375 7.19653 15.075 7.04653 15.675L5.50903 22.2375C5.50903 22.3125 5.50903 22.35 5.54653 22.3875C5.62153 22.4625 5.69653 22.5 5.80903 22.425L11.134 18.9375C11.359 18.7875 11.659 18.7125 11.9965 18.7125Z" fill="#FF6500"></path></svg>