<svg width="12" height="18" viewBox="0 0 19 18" fill="none" xmlns="https://www.w3.org/2000/svg" class="IconCalendarPreOrder"><path d="M3.07129 13.8213H4.35732V14.7856H3.07129V13.8213Z" fill="#e72626"></path><path d="M13.0001 11.5246C13.5815 11.1361 14.2651 10.9287 14.9644 10.9287C15.9018 10.9298 16.8005 11.3027 17.4633 11.9655C18.1262 12.6284 18.499 13.527 18.5001 14.4644C18.5001 15.1637 18.2928 15.8473 17.9043 16.4288C17.5157 17.0102 16.9635 17.4634 16.3175 17.731C15.6714 17.9986 14.9605 18.0686 14.2746 17.9322C13.5888 17.7958 12.9588 17.459 12.4643 16.9645C11.9698 16.4701 11.6331 15.8401 11.4967 15.1542C11.3602 14.4683 11.4302 13.7574 11.6979 13.1114C11.9655 12.4653 12.4186 11.9131 13.0001 11.5246Z" fill="#e72626"></path><path d="M15.9679 13.8978C15.9699 13.9497 15.9524 14.0025 15.914 14.0465L15.1162 14.9436C15.0314 15.0407 14.8773 15.0575 14.772 14.9811C14.6667 14.9045 14.6501 14.7639 14.7348 14.6668L15.5326 13.7697C15.6174 13.6726 15.7715 13.6558 15.8769 13.7323C15.9345 13.7741 15.9655 13.8352 15.9679 13.8978Z" fill="white"></path><path d="M14.447 14.1242C14.4989 14.1242 14.551 14.1438 14.5935 14.1838L15.0615 14.6089C15.1553 14.6974 15.1662 14.8521 15.0858 14.9543C15.0053 15.0567 14.8641 15.0679 14.7703 14.9794L14.3022 14.5543C14.2085 14.4658 14.1976 14.3111 14.278 14.2088C14.3221 14.1528 14.3843 14.1242 14.447 14.1242Z" fill="white"></path><path d="M14.9643 16.9043C13.5443 16.9043 12.3892 15.8098 12.3892 14.4644C12.3892 13.119 13.5443 12.0244 14.9643 12.0244C16.3842 12.0244 17.5394 13.119 17.5394 14.4644C17.5394 15.8098 16.3842 16.9043 14.9643 16.9043ZM14.9643 12.545C13.8473 12.545 12.9385 13.406 12.9385 14.4644C12.9385 15.5228 13.8473 16.3838 14.9643 16.3838C16.0813 16.3838 16.99 15.5228 16.99 14.4644C16.99 13.406 16.0813 12.545 14.9643 12.545Z" fill="white"></path><path d="M6.92871 8.03564H8.21475V8.99993H6.92871V8.03564Z" fill="#e72626"></path><path d="M10.7856 8.03564H12.0714V8.99993H10.7856V8.03564Z" fill="#e72626"></path><path d="M3.07129 10.9287H4.35732V11.893H3.07129V10.9287Z" fill="#e72626"></path><path d="M6.92871 10.9287H8.21475V11.893H6.92871V10.9287Z" fill="#e72626"></path><path d="M3.07129 8.03564H4.35732V8.99993H3.07129V8.03564Z" fill="#e72626"></path><path d="M4.35721 3.21429C4.52755 3.21378 4.69077 3.14588 4.81122 3.02544C4.93167 2.90499 4.99956 2.74177 5.00007 2.57143V0.642857C5.00007 0.472361 4.93234 0.308848 4.81178 0.188288C4.69122 0.0677294 4.52771 0 4.35721 0C4.18672 0 4.0232 0.0677294 3.90264 0.188288C3.78208 0.308848 3.71436 0.472361 3.71436 0.642857V2.57143C3.71486 2.74177 3.78276 2.90499 3.90321 3.02544C4.02365 3.14588 4.18687 3.21378 4.35721 3.21429Z" fill="#e72626"></path><path d="M9.49979 3.21429C9.67013 3.21378 9.83335 3.14588 9.9538 3.02544C10.0742 2.90499 10.1421 2.74177 10.1426 2.57143V0.642857C10.1426 0.472361 10.0749 0.308848 9.95436 0.188288C9.8338 0.0677294 9.67029 0 9.49979 0C9.32929 0 9.16578 0.0677294 9.04522 0.188288C8.92466 0.308848 8.85693 0.472361 8.85693 0.642857V2.57143C8.85744 2.74177 8.92533 2.90499 9.04578 3.02544C9.16623 3.14588 9.32945 3.21378 9.49979 3.21429Z" fill="#e72626"></path><path d="M14.6429 3.21429C14.8132 3.21378 14.9764 3.14588 15.0969 3.02544C15.2173 2.90499 15.2852 2.74177 15.2857 2.57143V0.642857C15.2857 0.472361 15.218 0.308848 15.0974 0.188288C14.9769 0.0677294 14.8134 0 14.6429 0C14.4724 0 14.3088 0.0677294 14.1883 0.188288C14.0677 0.308848 14 0.472361 14 0.642857V2.57143C14.0005 2.74177 14.0684 2.90499 14.1889 3.02544C14.3093 3.14588 14.4725 3.21378 14.6429 3.21429Z" fill="#e72626"></path><path d="M14.6431 8.03564H15.9288V8.99993H14.6431V8.03564Z" fill="#e72626"></path><path d="M17.5357 1.92871H15.9286V2.57157C15.9286 2.91256 15.7931 3.23959 15.552 3.48071C15.3109 3.72182 14.9838 3.85728 14.6429 3.85728C14.3019 3.85728 13.9748 3.72182 13.7337 3.48071C13.4926 3.23959 13.3571 2.91256 13.3571 2.57157V1.92871H10.7857V2.57157C10.7857 2.91256 10.6503 3.23959 10.4091 3.48071C10.168 3.72182 9.84099 3.85728 9.5 3.85728C9.15901 3.85728 8.83198 3.72182 8.59086 3.48071C8.34974 3.23959 8.21429 2.91256 8.21429 2.57157V1.92871H5.64286V2.57157C5.64286 2.91256 5.5074 3.23959 5.26628 3.48071C5.02516 3.72182 4.69814 3.85728 4.35714 3.85728C4.01615 3.85728 3.68912 3.72182 3.44801 3.48071C3.20689 3.23959 3.07143 2.91256 3.07143 2.57157V1.92871H1.46429C1.20878 1.92947 0.963949 2.03131 0.783276 2.21199C0.602602 2.39266 0.500763 2.63749 0.5 2.893V5.143H18.5V2.893C18.4992 2.63749 18.3974 2.39266 18.2167 2.21199C18.0361 2.03131 17.7912 1.92947 17.5357 1.92871Z" fill="#e72626"></path><path d="M6.92871 13.8213H8.21475V14.7856H6.92871V13.8213Z" fill="#e72626"></path><path d="M0.5 5.78564V15.7499C0.500763 16.0054 0.602602 16.2503 0.783276 16.4309C0.963949 16.6116 1.20878 16.7135 1.46429 16.7142H11.4488C11.1555 16.2512 10.9562 15.735 10.8623 15.195C10.7684 14.655 10.7819 14.1018 10.9018 13.5669C11.0218 13.0321 11.2459 12.5262 11.5613 12.078C11.8768 11.6297 12.2775 11.2481 12.7405 10.9547C13.2035 10.6613 13.7197 10.462 14.2597 10.3682C14.7997 10.2743 15.3529 10.2878 15.8878 10.4077C16.4226 10.5276 16.9285 10.7517 17.3767 11.0672C17.825 11.3827 18.2066 11.7834 18.5 12.2464V5.78564H0.5ZM5 14.7856C5 14.9561 4.93227 15.1197 4.81171 15.2402C4.69115 15.3608 4.52764 15.4285 4.35714 15.4285H3.07143C2.90093 15.4285 2.73742 15.3608 2.61686 15.2402C2.4963 15.1197 2.42857 14.9561 2.42857 14.7856V13.8214C2.42857 13.6509 2.4963 13.4873 2.61686 13.3668C2.73742 13.2462 2.90093 13.1785 3.07143 13.1785H4.35714C4.52764 13.1785 4.69115 13.2462 4.81171 13.3668C4.93227 13.4873 5 13.6509 5 13.8214V14.7856ZM5 11.8928C5 12.0633 4.93227 12.2268 4.81171 12.3474C4.69115 12.4679 4.52764 12.5356 4.35714 12.5356H3.07143C2.90093 12.5356 2.73742 12.4679 2.61686 12.3474C2.4963 12.2268 2.42857 12.0633 2.42857 11.8928V10.9285C2.42857 10.758 2.4963 10.5945 2.61686 10.4739C2.73742 10.3534 2.90093 10.2856 3.07143 10.2856H4.35714C4.52764 10.2856 4.69115 10.3534 4.81171 10.4739C4.93227 10.5945 5 10.758 5 10.9285V11.8928ZM5 8.99993C5 9.17043 4.93227 9.33394 4.81171 9.4545C4.69115 9.57506 4.52764 9.64279 4.35714 9.64279H3.07143C2.90093 9.64279 2.73742 9.57506 2.61686 9.4545C2.4963 9.33394 2.42857 9.17043 2.42857 8.99993V8.03564C2.42857 7.86515 2.4963 7.70164 2.61686 7.58108C2.73742 7.46052 2.90093 7.39279 3.07143 7.39279H4.35714C4.52764 7.39279 4.69115 7.46052 4.81171 7.58108C4.93227 7.70164 5 7.86515 5 8.03564V8.99993ZM8.85714 14.7856C8.85714 14.9561 8.78941 15.1197 8.66885 15.2402C8.5483 15.3608 8.38478 15.4285 8.21429 15.4285H6.92857C6.75808 15.4285 6.59456 15.3608 6.474 15.2402C6.35344 15.1197 6.28571 14.9561 6.28571 14.7856V13.8214C6.28571 13.6509 6.35344 13.4873 6.474 13.3668C6.59456 13.2462 6.75808 13.1785 6.92857 13.1785H8.21429C8.38478 13.1785 8.5483 13.2462 8.66885 13.3668C8.78941 13.4873 8.85714 13.6509 8.85714 13.8214V14.7856ZM8.85714 11.8928C8.85714 12.0633 8.78941 12.2268 8.66885 12.3474C8.5483 12.4679 8.38478 12.5356 8.21429 12.5356H6.92857C6.75808 12.5356 6.59456 12.4679 6.474 12.3474C6.35344 12.2268 6.28571 12.0633 6.28571 11.8928V10.9285C6.28571 10.758 6.35344 10.5945 6.474 10.4739C6.59456 10.3534 6.75808 10.2856 6.92857 10.2856H8.21429C8.38478 10.2856 8.5483 10.3534 8.66885 10.4739C8.78941 10.5945 8.85714 10.758 8.85714 10.9285V11.8928ZM8.85714 8.99993C8.85714 9.17043 8.78941 9.33394 8.66885 9.4545C8.5483 9.57506 8.38478 9.64279 8.21429 9.64279H6.92857C6.75808 9.64279 6.59456 9.57506 6.474 9.4545C6.35344 9.33394 6.28571 9.17043 6.28571 8.99993V8.03564C6.28571 7.86515 6.35344 7.70164 6.474 7.58108C6.59456 7.46052 6.75808 7.39279 6.92857 7.39279H8.21429C8.38478 7.39279 8.5483 7.46052 8.66885 7.58108C8.78941 7.70164 8.85714 7.86515 8.85714 8.03564V8.99993ZM12.0714 10.9285H10.7857V11.8928C10.871 11.8928 10.9527 11.9267 11.013 11.9869C11.0733 12.0472 11.1071 12.129 11.1071 12.2142C11.1071 12.2995 11.0733 12.3812 11.013 12.4415C10.9527 12.5018 10.871 12.5356 10.7857 12.5356C10.6152 12.5356 10.4517 12.4679 10.3311 12.3474C10.2106 12.2268 10.1429 12.0633 10.1429 11.8928V10.9285C10.1429 10.758 10.2106 10.5945 10.3311 10.4739C10.4517 10.3534 10.6152 10.2856 10.7857 10.2856H12.0714C12.1567 10.2856 12.2384 10.3195 12.2987 10.3798C12.359 10.4401 12.3929 10.5218 12.3929 10.6071C12.3929 10.6923 12.359 10.7741 12.2987 10.8344C12.2384 10.8946 12.1567 10.9285 12.0714 10.9285ZM12.7143 8.99993C12.7143 9.17043 12.6466 9.33394 12.526 9.4545C12.4054 9.57506 12.2419 9.64279 12.0714 9.64279H10.7857C10.6152 9.64279 10.4517 9.57506 10.3311 9.4545C10.2106 9.33394 10.1429 9.17043 10.1429 8.99993V8.03564C10.1429 7.86515 10.2106 7.70164 10.3311 7.58108C10.4517 7.46052 10.6152 7.39279 10.7857 7.39279H12.0714C12.2419 7.39279 12.4054 7.46052 12.526 7.58108C12.6466 7.70164 12.7143 7.86515 12.7143 8.03564V8.99993ZM16.5714 8.99993C16.5714 9.17043 16.5037 9.33394 16.3831 9.4545C16.2626 9.57506 16.0991 9.64279 15.9286 9.64279H14.6429C14.4724 9.64279 14.3088 9.57506 14.1883 9.4545C14.0677 9.33394 14 9.17043 14 8.99993V8.03564C14 7.86515 14.0677 7.70164 14.1883 7.58108C14.3088 7.46052 14.4724 7.39279 14.6429 7.39279H15.9286C16.0991 7.39279 16.2626 7.46052 16.3831 7.58108C16.5037 7.70164 16.5714 7.86515 16.5714 8.03564V8.99993Z" fill="#e72626"></path></svg>